<?xml version="1.0" encoding="UTF-8" standalone="no"?>
<!-- Created with Inkscape (http://www.inkscape.org/) -->

<svg
   width="400mm"
   height="400mm"
   viewBox="0 0 400 400"
   version="1.1"
   id="svg1"
   sodipodi:docname="thelogo21.svg"
   inkscape:version="1.3.2 (091e20e, 2023-11-25, custom)"
   xmlns:inkscape="http://www.inkscape.org/namespaces/inkscape"
   xmlns:sodipodi="http://sodipodi.sourceforge.net/DTD/sodipodi-0.dtd"
   xmlns="http://www.w3.org/2000/svg"
   xmlns:svg="http://www.w3.org/2000/svg">
  <sodipodi:namedview
     id="namedview1"
     pagecolor="#505050"
     bordercolor="#ffffff"
     borderopacity="1"
     inkscape:showpageshadow="0"
     inkscape:pageopacity="0"
     inkscape:pagecheckerboard="1"
     inkscape:deskcolor="#505050"
     inkscape:document-units="mm"
     inkscape:zoom="0.25"
     inkscape:cx="566"
     inkscape:cy="490"
     inkscape:window-width="1920"
     inkscape:window-height="1017"
     inkscape:window-x="1352"
     inkscape:window-y="845"
     inkscape:window-maximized="1"
     inkscape:current-layer="layer1"
     showgrid="false">
    <inkscape:grid
       id="grid7"
       units="mm"
       originx="0"
       originy="0"
       spacingx="0.99999999"
       spacingy="0.99999999"
       empcolor="#0099e5"
       empopacity="0.30196078"
       color="#0099e5"
       opacity="0.14901961"
       empspacing="5"
       dotted="false"
       gridanglex="30"
       gridanglez="30"
       visible="false" />
  </sodipodi:namedview>
  <defs
     id="defs1">
    <clipPath
       clipPathUnits="userSpaceOnUse"
       id="clipPath33">
      <rect
         style="fill:#000000;stroke:none;stroke-width:0.999995;stroke-linecap:butt;stroke-linejoin:bevel;paint-order:stroke markers fill;stop-color:#000000"
         id="rect33"
         width="46.19186"
         height="80.006783"
         x="74.999985"
         y="399.99661" />
    </clipPath>
    <linearGradient
       id="swatch7"
       inkscape:swatch="solid">
      <stop
         style="stop-color:#ffffff;stop-opacity:1;"
         offset="0"
         id="stop7" />
    </linearGradient>
  </defs>
  <g
     inkscape:label="Layer 1"
     inkscape:groupmode="layer"
     id="layer1">
    <rect
       style="display:none;fill:#000000;fill-opacity:1;fill-rule:evenodd;stroke:none;stroke-width:4.99999;stroke-linecap:round"
       id="rect6-5"
       width="400"
       height="400"
       x="-1.010303e-14"
       y="-5.6843419e-14" />
    <path
       id="circle7"
       style="display:none;fill:#e60000;fill-opacity:0.428571;fill-rule:evenodd;stroke-width:24.5705;stroke-linecap:round"
       d="M 266.66666,266.66666 A 133.33334,133.33334 0 0 1 133.33334,400 133.33334,133.33334 0 0 1 0,266.66666 133.33334,133.33334 0 0 1 133.33334,133.33333 133.33334,133.33334 0 0 1 266.66666,266.66666 Z M 400,133.33333 A 133.33334,133.33334 0 0 1 266.66666,266.66666 133.33334,133.33334 0 0 1 133.33334,133.33333 133.33334,133.33334 0 0 1 266.66666,0 133.33334,133.33334 0 0 1 400,133.33333 Z M 59.649121,59.649117 H 340.35087 V 340.35087 H 59.649121 Z" />
    <g
       id="g60"
       style="display:none">
      <path
         style="font-size:359.965px;line-height:0;font-family:'Nunito Sans 10pt SemiExpanded';-inkscape-font-specification:'Nunito Sans 10pt SemiExpanded, ';display:inline;fill:#ffffff;fill-opacity:1;fill-rule:evenodd;stroke-width:4.14912;stroke-linecap:round;stroke-dasharray:none"
         d="m 81.994115,329.99823 -2.09863,-26.98173 22.485415,-1.42008 q 11.3926,-1.06509 19.48735,-6.39043 8.39455,-5.68035 12.89163,-15.26598 4.49709,-9.5856 4.49709,-22.36643 V 77.221964 h 27.2823 V 258.28362 q 0,20.94633 -7.19533,36.21232 -7.19534,15.26598 -20.98638,24.14156 -13.49125,8.52055 -32.67881,9.94065 z"
         id="text4" />
      <path
         style="font-size:401.997px;line-height:0;font-family:'Nunito Sans 10pt SemiExpanded';-inkscape-font-specification:'Nunito Sans 10pt SemiExpanded, ';display:inline;fill:#ffffff;fill-opacity:1;fill-rule:evenodd;stroke-width:4.21214;stroke-linecap:round;stroke-dasharray:none"
         d="M 185.72196,349.56516 V 130.38506 H 95.660434 V 103.11864 H 304.33957 v 27.26642 h -90.06153 v 219.1801 z"
         id="text5" />
      <path
         style="font-size:382.482px;line-height:0;font-family:'Nunito Sans 10pt SemiExpanded';-inkscape-font-specification:'Nunito Sans 10pt SemiExpanded, ';display:inline;fill:#ffffff;fill-opacity:1;fill-rule:evenodd;stroke-width:4.2299;stroke-linecap:round;stroke-dasharray:none"
         d="m 320.23476,139.90414 q 0,37.58375 -14.30178,65.18952 -14.63438,27.27317 -41.57495,41.90756 -27.27317,14.63438 -64.52433,14.63438 -37.25116,0 -64.19172,-14.63438 -26.94057,-14.63439 -41.242358,-41.90756 -14.63438,-27.60577 -14.63438,-65.18952 0,-27.60577 7.98239,-50.555141 7.64979,-22.949378 22.949368,-38.914158 l 23.61458,12.30619 q -14.30179,16.962576 -20.95378,35.255558 -6.65199,18.292981 -6.65199,41.242341 0,42.90536 24.27977,66.85254 23.94717,23.94717 69.18072,23.94717 44.90095,0 69.18073,-23.61458 23.94717,-23.94718 23.94717,-67.18513 0,-22.94936 -6.652,-41.242341 -6.65199,-18.292982 -20.95378,-35.255558 L 289.303,50.434841 q 14.96698,15.96478 22.94937,38.914158 7.98239,22.949371 7.98239,50.555141 z"
         id="text6" />
    </g>
    <g
       id="g4"
       transform="translate(-4.7287472,-3.627426)">
      <path
         d="m 77.7429,315.10001 -1.72861,-20.74338 24.20061,-1.38289 q 14.17464,-1.03717 24.20061,-6.56874 10.37169,-5.87729 15.90326,-15.90326 5.53156,-10.37169 5.53156,-23.85487 V 68.945249 H 169.3595 V 247.33831 q 0,19.36048 -7.95163,33.88085 -7.95163,14.52036 -23.16344,22.81771 -14.86609,8.29737 -35.60947,9.68025 z"
         id="text55"
         style="font-weight:300;font-stretch:semi-expanded;font-size:345.723px;line-height:0;font-family:'Nunito Sans 10pt SemiExpanded';-inkscape-font-specification:'Nunito Sans 10pt SemiExpanded,  Light Semi-Expanded';fill:#ffffff;fill-rule:evenodd;stroke:none;stroke-width:0;stroke-dasharray:none;stroke-opacity:1;paint-order:markers fill stroke"
         aria-label="J&#10;" />
      <path
         d="M 196.67161,380.44167 V 157.79606 H 95.029051 v -21.0891 H 322.16905 v 21.0891 h -101.6426 v 222.64561 z"
         id="text57"
         style="font-weight:300;font-stretch:semi-expanded;font-size:345.723px;line-height:0;font-family:'Nunito Sans 10pt SemiExpanded';-inkscape-font-specification:'Nunito Sans 10pt SemiExpanded,  Light Semi-Expanded';fill:#ffffff;fill-rule:evenodd;stroke:none;stroke-width:0;stroke-dasharray:none;stroke-opacity:1;paint-order:markers fill stroke"
         aria-label="T&#10;" />
      <path
         d="m 333.31542,127.76009 q -1.42051,38.34895 -17.30021,65.43755 -16.22516,27.0758 -44.75986,40.8951 -28.88016,13.8065 -67.57451,12.3732 -38.69446,-1.4333 -66.12853,-17.32577 -27.4341,-15.89248 -41.266211,-44.08165 -13.8193,-28.53465 -12.3988,-66.88361 1.06218,-28.675348 10.22407,-51.861268 9.161881,-23.18591 26.372271,-39.50046 l 18.25953,11.40112 q -16.55781,17.3766 -24.19697,36.81336 -7.97187,19.078484 -8.89328,43.953478 -1.72765,46.64062 23.90218,73.88295 25.64262,26.89685 75.39261,28.73967 49.40451,1.83002 76.96677,-23.09603 27.56216,-24.92607 29.3026,-71.91217 0.92142,-24.87499 -5.2716,-44.478168 -6.52578,-19.96144 -21.75272,-38.5154 l 19.05302,-10.01901 q 15.6107,17.53029 23.36486,41.68877 7.76696,23.812984 6.70478,52.488338 z"
         id="text59"
         style="font-weight:300;font-stretch:semi-expanded;font-size:345.723px;line-height:0;font-family:'Nunito Sans 10pt SemiExpanded';-inkscape-font-specification:'Nunito Sans 10pt SemiExpanded,  Light Semi-Expanded';fill:#ffffff;fill-rule:evenodd;stroke:none;stroke-width:0;stroke-dasharray:none;stroke-opacity:1;paint-order:markers fill stroke"
         aria-label="C" />
    </g>
  </g>
</svg>
