<?xml version="1.0" encoding="UTF-8" standalone="no"?>
<!-- Created with Inkscape (http://www.inkscape.org/) -->

<svg
   width="400mm"
   height="400mm"
   viewBox="0 0 400 400"
   version="1.1"
   id="svg1"
   sodipodi:docname="thelogo21black.svg"
   inkscape:version="1.3.2 (091e20e, 2023-11-25, custom)"
   xmlns:inkscape="http://www.inkscape.org/namespaces/inkscape"
   xmlns:sodipodi="http://sodipodi.sourceforge.net/DTD/sodipodi-0.dtd"
   xmlns="http://www.w3.org/2000/svg"
   xmlns:svg="http://www.w3.org/2000/svg">
  <sodipodi:namedview
     id="namedview1"
     pagecolor="#505050"
     bordercolor="#ffffff"
     borderopacity="1"
     inkscape:showpageshadow="0"
     inkscape:pageopacity="0"
     inkscape:pagecheckerboard="1"
     inkscape:deskcolor="#505050"
     inkscape:document-units="mm"
     inkscape:zoom="0.25"
     inkscape:cx="778"
     inkscape:cy="250"
     inkscape:window-width="1920"
     inkscape:window-height="1017"
     inkscape:window-x="1352"
     inkscape:window-y="845"
     inkscape:window-maximized="1"
     inkscape:current-layer="layer1"
     showgrid="false">
    <inkscape:grid
       id="grid7"
       units="mm"
       originx="0"
       originy="0"
       spacingx="0.99999999"
       spacingy="0.99999999"
       empcolor="#0099e5"
       empopacity="0.30196078"
       color="#0099e5"
       opacity="0.14901961"
       empspacing="5"
       dotted="false"
       gridanglex="30"
       gridanglez="30"
       visible="false" />
  </sodipodi:namedview>
  <defs
     id="defs1">
    <clipPath
       clipPathUnits="userSpaceOnUse"
       id="clipPath33">
      <rect
         style="fill:#000000;stroke:none;stroke-width:0.999995;stroke-linecap:butt;stroke-linejoin:bevel;paint-order:stroke markers fill;stop-color:#000000"
         id="rect33"
         width="46.19186"
         height="80.006783"
         x="74.999985"
         y="399.99661" />
    </clipPath>
    <linearGradient
       id="swatch7"
       inkscape:swatch="solid">
      <stop
         style="stop-color:#ffffff;stop-opacity:1;"
         offset="0"
         id="stop7" />
    </linearGradient>
  </defs>
  <g
     inkscape:label="Layer 1"
     inkscape:groupmode="layer"
     id="layer1">
    <rect
       style="display:none;fill:#000000;fill-opacity:1;fill-rule:evenodd;stroke:none;stroke-width:4.99999;stroke-linecap:round"
       id="rect6-5"
       width="400"
       height="400"
       x="-1.010303e-14"
       y="-5.6843419e-14" />
    <path
       id="circle7"
       style="display:none;fill:#e60000;fill-opacity:0.428571;fill-rule:evenodd;stroke-width:24.5705;stroke-linecap:round"
       d="M 266.66666,266.66666 A 133.33334,133.33334 0 0 1 133.33334,400 133.33334,133.33334 0 0 1 0,266.66666 133.33334,133.33334 0 0 1 133.33334,133.33333 133.33334,133.33334 0 0 1 266.66666,266.66666 Z M 400,133.33333 A 133.33334,133.33334 0 0 1 266.66666,266.66666 133.33334,133.33334 0 0 1 133.33334,133.33333 133.33334,133.33334 0 0 1 266.66666,0 133.33334,133.33334 0 0 1 400,133.33333 Z M 59.649121,59.649117 H 340.35087 V 340.35087 H 59.649121 Z" />
    <g
       id="g2">
      <path
         d="m 73.014153,311.47258 -1.72861,-20.74338 24.20061,-1.38289 q 14.174637,-1.03717 24.200607,-6.56874 10.37169,-5.87729 15.90326,-15.90326 5.53156,-10.37169 5.53156,-23.85487 V 65.317823 h 23.50917 V 243.71088 q 0,19.36048 -7.95163,33.88085 -7.95163,14.52036 -23.16344,22.81771 -14.86609,8.29737 -35.609467,9.68025 z"
         id="text55"
         style="font-weight:300;font-stretch:semi-expanded;font-size:345.723px;line-height:0;font-family:'Nunito Sans 10pt SemiExpanded';-inkscape-font-specification:'Nunito Sans 10pt SemiExpanded,  Light Semi-Expanded';fill:#000000;fill-rule:evenodd;stroke:none;stroke-width:0;stroke-dasharray:none;stroke-opacity:1;paint-order:normal;fill-opacity:1"
         aria-label="J&#10;" />
      <path
         d="M 191.94286,376.81424 V 154.16863 H 90.300304 v -21.0891 H 317.4403 v 21.0891 H 215.7977 v 222.64561 z"
         id="text57"
         style="font-weight:300;font-stretch:semi-expanded;font-size:345.723px;line-height:0;font-family:'Nunito Sans 10pt SemiExpanded';-inkscape-font-specification:'Nunito Sans 10pt SemiExpanded,  Light Semi-Expanded';fill:#000000;fill-rule:evenodd;stroke:none;stroke-width:0;stroke-dasharray:none;stroke-opacity:1;paint-order:normal;fill-opacity:1"
         aria-label="T&#10;" />
      <path
         d="m 328.58667,124.13266 q -1.42051,38.34895 -17.30021,65.43755 -16.22516,27.0758 -44.75986,40.8951 -28.88016,13.8065 -67.57451,12.3732 -38.69446,-1.4333 -66.12853,-17.32577 -27.4341,-15.89248 -41.266208,-44.08165 -13.8193,-28.53465 -12.3988,-66.88361 1.06218,-28.675344 10.22407,-51.861264 9.161881,-23.18591 26.372268,-39.50046 l 18.25953,11.40112 q -16.55781,17.3766 -24.19697,36.81336 -7.97187,19.078484 -8.89328,43.953474 -1.727647,46.64062 23.90218,73.88295 25.64262,26.89685 75.39261,28.73967 49.40451,1.83002 76.96677,-23.09603 27.56216,-24.92607 29.3026,-71.91217 0.92142,-24.874986 -5.2716,-44.478164 -6.52578,-19.96144 -21.75272,-38.5154 l 19.05302,-10.01901 q 15.6107,17.53029 23.36486,41.68877 7.76696,23.812984 6.70478,52.488334 z"
         id="text59"
         style="font-weight:300;font-stretch:semi-expanded;font-size:345.723px;line-height:0;font-family:'Nunito Sans 10pt SemiExpanded';-inkscape-font-specification:'Nunito Sans 10pt SemiExpanded,  Light Semi-Expanded';fill:#000000;fill-rule:evenodd;stroke:#000000;stroke-width:0;stroke-dasharray:none;stroke-opacity:1;paint-order:normal;stroke-linecap:butt;stroke-linejoin:bevel;fill-opacity:1"
         aria-label="C" />
    </g>
  </g>
</svg>
